<svg width="18" height="19" fill="none" xmlns="http://www.w3.org/2000/svg"><path d="M9 .96c-4.962 0-9 4.038-9 9 0 1.502.378 2.986 1.094 4.3l-.702 3.05a.798.798 0 00.96.96l2.896-.668A8.968 8.968 0 009 18.96c4.962 0 9-4.038 9-9s-4.038-9-9-9zm0 17.2a8.17 8.17 0 01-4.462-1.322.407.407 0 00-.308-.054l-3.058.706.738-3.198a.402.402 0 00-.042-.288A8.187 8.187 0 01.8 9.96c0-4.522 3.678-8.2 8.2-8.2 4.522 0 8.2 3.678 8.2 8.2 0 4.522-3.678 8.2-8.2 8.2zm4.2-10.6c0 .22-.18.4-.4.4H5.2c-.22 0-.4-.18-.4-.4 0-.22.18-.4.4-.4h7.6c.22 0 .4.18.4.4zm0 2.4c0 .22-.18.4-.4.4H5.2c-.22 0-.4-.18-.4-.4 0-.22.18-.4.4-.4h7.6c.22 0 .4.18.4.4zm0 2.4c0 .22-.18.4-.4.4H5.2c-.22 0-.4-.18-.4-.4 0-.22.18-.4.4-.4h7.6c.22 0 .4.18.4.4z" fill="#9C8679"/></svg>