<svg width="16" height="16" fill="none" xmlns="http://www.w3.org/2000/svg"><path d="M3.003.725a3.77 3.77 0 00-1.362.887 3.754 3.754 0 00-.888 1.36c-.19.487-.319 1.047-.356 1.865C.359 5.657.35 5.92.35 8.007c0 2.087.01 2.35.047 3.168.037.819.169 1.378.356 1.865.197.507.46.935.888 1.363.428.428.856.69 1.362.887.488.191 1.047.32 1.866.357.818.037 1.081.047 3.168.047 2.088 0 2.35-.01 3.17-.047.818-.038 1.377-.169 1.865-.357a3.758 3.758 0 001.362-.887 3.77 3.77 0 00.888-1.363c.19-.487.319-1.046.356-1.865.038-.819.047-1.081.047-3.169 0-2.087-.01-2.35-.047-3.169-.037-.818-.169-1.378-.356-1.865a3.79 3.79 0 00-.884-1.36 3.77 3.77 0 00-1.363-.887c-.487-.19-1.047-.319-1.866-.356C10.391.33 10.13.322 8.041.322s-2.35.01-3.17.047c-.821.034-1.38.165-1.868.356zm8.14 1.025c.75.034 1.157.16 1.429.266.36.14.616.306.884.575.269.268.435.525.575.884.106.272.231.678.266 1.428.037.81.044 1.053.044 3.106s-.01 2.297-.044 3.107c-.035.75-.16 1.156-.266 1.428-.14.359-.306.615-.575.884a2.394 2.394 0 01-.884.575c-.272.106-.678.231-1.428.266-.81.037-1.053.043-3.107.043-2.053 0-2.296-.009-3.106-.043-.75-.035-1.156-.16-1.428-.266a2.394 2.394 0 01-.884-.575 2.395 2.395 0 01-.575-.884c-.107-.272-.232-.678-.266-1.428-.037-.81-.044-1.054-.044-3.107s.01-2.297.044-3.106c.034-.75.16-1.156.266-1.428.14-.36.306-.616.575-.884.268-.27.525-.435.884-.575.272-.107.678-.232 1.428-.266.81-.038 1.053-.044 3.106-.044 2.054 0 2.297.006 3.107.044z" fill="#fff"/><path d="M4.09 8.01a3.947 3.947 0 107.895 0 3.947 3.947 0 00-7.894 0zm6.51 0a2.562 2.562 0 11-5.124 0 2.562 2.562 0 015.124 0zm1.544-3.182a.922.922 0 100-1.844.922.922 0 000 1.844z" fill="#fff"/></svg>