<svg width="77" height="77" fill="none" xmlns="http://www.w3.org/2000/svg"><path fill-rule="evenodd" clip-rule="evenodd" d="M35.652.891h4.753c.214.044.431.111.649.128 6.111.472 11.751 2.37 16.964 5.56.201.124.417.228.654.362 1.301-1.935 2.557-3.813 3.88-5.783.243.345.425.596.6.858 2.349 3.51 4.68 7.03 7.041 10.529 2.617 3.877 4.402 8.097 5.27 12.693.243 1.304.397 2.626.59 3.942v3.702c-.417 1.186-.217 2.367 0 3.553v4.74c-.066.532-.134 1.065-.194 1.6-.755 6.578-2.952 12.625-6.881 17.974-7.31 9.95-17.184 15.335-29.543 15.919-8.507.4-16.276-1.994-23.27-6.86a2.447 2.447 0 00-1.292-.41c-3.02-.033-6.038-.014-9.059-.02-.285 0-.57-.029-.861-.044v-2.411h2.345v-4.824c-1.777-.437-2.436-1.22-2.373-2.997.038-1.122-.21-2.098-.744-3.09-1.796-3.355-2.952-6.94-3.602-10.681C.34 43.953.192 42.56 0 41.175v-4.74c.044-.21.113-.423.129-.636.414-5.364 1.955-10.392 4.528-15.108.227-.421.24-.698-.053-1.115-1.944-2.772-.648-6.482 2.592-7.45.46-.137.746-.35.983-.774 1.414-2.514 4.34-3.749 7.035-2.836.97.327 1.77.449 2.705-.003.408-.195.596-.358.69-.802.556-2.614 2.038-4.58 4.405-5.809.882-.46 1.887-.68 2.832-1.01h2.227c.824.24 1.662.711 2.471.672 1.71-.082 3.406-.431 5.108-.673zM56.414 69.09c.31-.166.492-.233.643-.34 1.258-.917 2.505-1.851 3.771-2.754.411-.294.521-.646.521-1.132-.016-6.39-.021-12.783.006-19.176.002-.662-.199-.852-.84-.956-6.624-1.06-11.354-6.504-11.427-13.149-.039-3.452.487-6.83 1.505-10.135 1.233-4.012 3.323-7.578 5.726-10.984.322-.457.618-.932.92-1.389-4.495-4-19.643-7.356-23.802-5.293l.393.532c3.486 4.724 1.535 11.155-3.987 13.208-.261.099-.53.418-.626.693-.738 2.099-2.394 3.435-4.608 3.45-5.857.042-11.714.016-17.672.016-6.095 10.406-5.692 23.803-.552 33.147.964-.122.96-.122.969-1.033.008-1.012-.013-2.025.039-3.034.07-1.313.74-2.298 1.895-2.899.423-.223.536-.473.533-.916-.022-1.803-.014-3.603-.008-5.406.008-2.415 1.518-3.958 3.926-3.958 9.652-.01 19.307-.01 28.961 0 2.37 0 3.897 1.537 3.91 3.9.014 1.824-.016 3.653.025 5.478.005.28.194.674.42.807 1.374.802 2.03 1.972 2.019 3.54-.009.916.013 1.827-.009 2.74-.008.428.089.642.577.753 1.145.257 1.842 1.181 1.876 2.36.016.566.005 1.136.005 1.702 0 2.032-.481 2.686-2.384 3.258v4.847h2.384v1.403c-.003 1.006-.003 1.008-1 1.008h-30.28c4.1 2.665 11.662 5.42 20.221 4.809 5.426-.386 10.498-1.917 15.188-4.719-.404-.09-.8-.05-1.178-.108-.178-.03-.45-.245-.461-.393-.05-.655-.024-1.317-.024-1.985h2.424l.001 2.108zm6.16-63.522c-.18.244-.288.37-.382.51-1.648 2.464-3.268 4.945-4.949 7.388-3.726 5.425-5.73 11.396-5.703 17.986.017 3.97 1.775 7.072 5.083 9.268 1.39.922 2.936 1.479 4.717 1.66v-.88c0-1.975-.14-3.961.036-5.92.21-2.342-.579-4.3-1.814-6.17a75.987 75.987 0 00-.534-.799c-1.246-1.802-2.756-3.354-4.561-4.732l1.471-1.934c2.107 1.552 3.78 3.393 5.245 5.439.066-.031.129-.064.194-.095v-12.88h2.469v15.505c1.54-2.4 3.169-4.643 5.216-6.621.571.59 1.096 1.14 1.657 1.722-.132.15-.27.318-.42.476-2.408 2.534-4.261 5.43-5.64 8.638-.59 1.372-.994 2.767-.874 4.298.08 1.03.014 2.07.02 3.108 0 .261.027.523.043.799.178 0 .275.01.371 0 4.74-.572 8.977-4.938 9.304-9.69a27.117 27.117 0 00-2.63-13.739c-1.307-2.722-3.031-5.25-4.635-7.822-1.15-1.84-2.408-3.612-3.684-5.514zM33.077 44.927H13.745c-1.49 0-1.49 0-1.49 1.478.002.962.002.962.968.962 9.754.002 19.506 0 29.26 0 1.722 0 1.7 0 1.7-1.733 0-.557-.179-.726-.725-.718-2.104.026-4.21.011-6.313.011-1.565 0-1.532-.003-1.576-1.558-.022-.7.162-.931.895-.918 2.324.047 4.651.03 6.98 0 .241-.002.654-.208.694-.384.286-1.335-.308-2.04-1.664-2.04-9.503-.003-19.012-.003-28.514 0-.246 0-.5-.003-.738.054-.752.173-1.063.823-.966 1.91.076.821.711.46 1.084.462 6.263.025 12.526.017 18.788.017h.95l-.001 2.457zM16.56 12.108c-.214-.17-.411-.318-.604-.473-2.343-1.858-5.297-.923-6.03 1.957-.195.754-.563.805-1.197.774-1.44-.067-2.549.986-2.58 2.371-.032 1.37 1.043 2.468 2.476 2.499.84.02 1.683.005 2.523.005 4.449 0 8.901.01 13.353-.008 1.406-.004 2.46-1.077 2.468-2.426.006-1.359-1.073-2.525-2.441-2.42-.937.072-1.18-.283-1.411-1.093-.71-2.483-3.594-3.4-5.674-1.873-.296.216-.579.45-.883.687zm-1.844 37.748v3.909c0 .95.003.954.977.954h25.002c.173 0 .379.056.513-.018.194-.107.474-.304.476-.469.039-1.441.024-2.886.024-4.377H14.717zM41.67 62.102H14.767v4.782h26.902v-4.782zm31.75-22.62c-.125.139-.252.278-.373.423-2.204 2.654-5.004 4.292-8.422 4.823-.646.1-.843.31-.84.966.027 5.523.016 11.048.016 16.572.003.23.028.46.055.902 6.226-6.816 9.45-14.61 9.565-23.686zM7.473 57.15c-.05.134-.097.2-.1.269-.013.395-.02.79-.02 1.183-.003.998 0 .998 1.015.998 13.09 0 26.18.003 39.271-.002 1.657 0 1.422.212 1.437-1.47.008-.975 0-.978-.95-.978H7.472zm21.645-42.057c2.526-.621 4.4-3.758 3.949-6.505-.536-3.263-3.345-5.486-6.593-5.22-2.78.23-5.399 2.66-5.387 5.034 1.812.522 3.19 1.597 4.062 3.3.076.146.288.266.46.313 1.664.447 2.848 1.436 3.509 3.078zM46.56 66.908v-4.82h-2.335v4.82h2.335zm-36.703-4.83v4.816h2.35v-4.815h-2.35zm36.76-9.474h-.005c0-.516.021-1.032-.003-1.547-.036-.73-.544-1.223-1.22-1.226-.65-.002-1.177.456-1.203 1.15a50.415 50.415 0 000 3.247c.006.166.236.438.396.47 1.793.33 2.037.12 2.037-1.65-.002-.148-.002-.297-.002-.444zm-36.8 2.11c.733 0 1.37.029 2.005-.02.154-.016.408-.284.41-.439a47.45 47.45 0 00-.005-3.325c-.03-.675-.529-1.087-1.17-1.093-.656-.008-1.21.453-1.232 1.123-.03 1.203-.008 2.408-.008 3.753zM.002 66.94h2.395v2.388l-2.395.128V66.94z" fill="#9C8679"/><path fill-rule="evenodd" clip-rule="evenodd" d="M39.195 28.985h-2.372c.011-1.451.566-2.615 1.568-3.564 1.555-1.467 3.996-1.696 5.857-.589 1.824 1.086 2.74 3.317 2.209 5.375-.542 2.115-2.416 3.68-4.567 3.69-5.616.03-11.236.013-16.852.01-.143 0-.285-.025-.466-.04v-2.395h16.423c.299 0 .596.005.89-.023 1.287-.125 2.262-1.162 2.27-2.407.014-1.17-.867-2.231-2.004-2.409-1.337-.211-2.463.516-2.823 1.821-.043.164-.083.331-.133.53zM14.759 27.72v-2.323H29.37v2.324H14.76zm-4.913-.005V25.35c.692 0 1.346-.023 2 .018.14.01.376.239.384.379.044.632.021 1.267.021 1.97H9.847zm9.82 6.162c-.019-.189-.036-.283-.04-.38-.065-2.205.029-2.281 2.38-1.943v2.323h-2.34z" fill="#9C8679"/></svg>