<svg width="64" height="63" fill="none" xmlns="http://www.w3.org/2000/svg"><path d="M0 60.605V63h56.68v-2.395H33.357l-10.31-31.127h2.995c2.534 0 4.596-1.612 4.596-3.592v-3.592h4.596c.847 0 1.532-.536 1.532-1.197v-8.38c0-.662-.685-1.198-1.532-1.198h-4.596V9.125c0-1.98-2.062-3.592-4.596-3.592H24.51V3.139c0-1.32-1.374-2.395-3.063-2.395h-6.128c-1.69 0-3.064 1.074-3.064 2.395v2.394h-1.532c-2.533 0-4.595 1.612-4.595 3.592v16.76c0 1.981 2.062 3.592 4.595 3.592h2.997L3.41 60.605H0zm19.915 0v-31.03l10.277 31.03H19.915zM34 13.914V19.9h-3.362v-5.986H34zM15.32 3.139h6.127v2.394h-6.128V3.139zM9.19 25.5V12.716h15.32v-2.394H9.19V9.125c0-.66.687-1.198 1.532-1.198h15.32c.845 0 1.531.538 1.531 1.198V25.5c0 .66-.686 1-1.532 1H10.723c-.845 0-1.532-.34-1.532-1zm7.66 4.075v31.03H6.573l10.278-31.03zm29.875-14.229h-5.487v2.743h5.487v-2.743zm8.229 0h-5.486v2.743h5.486v-2.743zm8.231 0h-5.487v2.743h5.487v-2.743zM45.305 8.23l-4.752 2.743 1.372 2.376 4.752-2.743-1.372-2.376zm7.128-4.114L47.68 6.859l1.371 2.376 4.752-2.743-1.371-2.376zM59.561 0L54.81 2.743l1.372 2.376 4.751-2.743L59.562 0z" fill="#9C8679"/><path d="M41.924 20.085l-1.371 2.376 4.752 2.743 1.371-2.376-4.752-2.743zm7.128 4.115l-1.372 2.376 4.752 2.743 1.371-2.376-4.751-2.743zm7.125 4.117l-1.371 2.376 4.751 2.743 1.372-2.376-4.752-2.743z" fill="#9C8679"/></svg>