<svg width="65" height="65" fill="none" xmlns="http://www.w3.org/2000/svg"><path d="M63.689 7.537H60.45V5.383a1.075 1.075 0 00-1.079-1.076h-3.238V2.163a1.075 1.075 0 00-1.08-1.077l-4.318-.01a1.08 1.08 0 00-1.08 1.077v2.154H5.398a5.41 5.41 0 00-3.814 1.578A5.383 5.383 0 000 9.69v49.527a5.383 5.383 0 001.583 3.805A5.41 5.41 0 005.397 64.6h7.557a1.08 1.08 0 001.08-1.077v-3.23h49.655a1.081 1.081 0 001.08-1.076V8.613a1.075 1.075 0 00-1.08-1.076zm-9.715 3.23h-2.16V8.613h2.16v2.154zm0 2.153v23.687h-2.16V12.92h2.16zm-.054 25.84l-1.026 3.056-1.021-3.062 2.047.006zm.054-35.522V6.46h-2.16V3.23l2.16.008zM5.397 6.46h44.259v32.3c0 .115.019.23.055.34l2.159 6.46a1.077 1.077 0 001.025.74 1.08 1.08 0 001.026-.74l2.159-6.451c.035-.11.053-.224.053-.34V6.46h2.158v47.373H5.398a5.35 5.35 0 00-3.238 1.105V9.69c0-.857.341-1.678.948-2.284a3.243 3.243 0 012.29-.946zM62.61 58.14H4.318v2.153h7.556v2.154H5.397c-.859 0-1.682-.34-2.29-.946a3.226 3.226 0 010-4.568 3.243 3.243 0 012.29-.946h53.974a1.081 1.081 0 001.08-1.077V9.69h2.158v48.45z" fill="#9C8679"/><path d="M7.557 48.45h5.397v-2.153H8.636V29.07h4.318v-2.153H8.636v-12.92H21.59v12.92h-4.318v2.153h11.874v6.46h2.159v-6.46h4.318v-2.153H23.749v-12.92h19.43v12.92h-3.238v2.153h3.238v17.227H31.305v-6.46h-2.159v6.46H17.272v2.153h26.987a1.08 1.08 0 001.08-1.077V12.92a1.075 1.075 0 00-1.08-1.077H7.557a1.08 1.08 0 00-1.08 1.077v34.453a1.075 1.075 0 001.08 1.077zM60.45 62.447H32.385V64.6h28.067v-2.153zM37.782 0H9.715v2.153h28.067V0zm-7.557 62.447h-2.159V64.6h2.16v-2.153z" fill="#9C8679"/></svg>