<svg width="82" height="69" fill="none" xmlns="http://www.w3.org/2000/svg"><path d="M81.738 18.182l-7.43-16.465a1.112 1.112 0 00-1.015-.654H62.519c-.438 0-.834.256-1.014.654l-7.431 16.465a1.11 1.11 0 001.014 1.566h11.705V66.31H55.972v-4.944h1.096a3.028 3.028 0 003.028-3.021V42.303a2.414 2.414 0 00-2.414-2.408h-1.71v-6.823a3.147 3.147 0 00-3.147-3.14H10.832a3.147 3.147 0 00-3.147 3.14v6.822H5.974a2.414 2.414 0 00-2.414 2.409v16.042a3.028 3.028 0 003.029 3.021h1.096v4.944H1.113a1.111 1.111 0 100 2.22h77.343a1.111 1.111 0 100-2.22h-9.438V19.748h11.706a1.11 1.11 0 001.014-1.566zm-23.867 24.12v8.834h-6.024v-8.833c0-.104.085-.188.19-.188h5.645c.104 0 .189.084.189.188zm-4.124-9.23v6.822h-1.71a2.414 2.414 0 00-2.415 2.409v8.833H32.94V32.152h19.885c.508 0 .922.413.922.92zm-43.837 0c0-.507.413-.92.922-.92h19.883v18.984H14.034v-8.833a2.414 2.414 0 00-2.414-2.408H9.91v-6.823zm-3.936 9.042h5.646a.19.19 0 01.189.189v8.833H5.785v-8.833c0-.104.085-.188.189-.188zm-.189 16.23v-4.988h52.086v4.989c0 .441-.36.801-.803.801H6.589a.803.803 0 01-.804-.801zm42.402 3.022l1.712 4.944H13.757l1.713-4.944h32.717zM9.91 66.31v-4.944h3.205l-1.712 4.944H9.91zm42.343 0l-1.712-4.944h3.206v4.944h-1.494zm4.556-48.782l6.429-14.245h9.336l6.43 14.245H56.808z" fill="#9C8679"/><path d="M2.584 23.354c.024.058.07.103.103.155.042.065.071.136.128.193l.004.003c.202.203.48.33.79.33h39.774c.31 0 .589-.127.79-.33l.005-.003c.07-.07.11-.155.157-.236.022-.039.056-.07.074-.111.066-.152.093-.314.087-.478V1.427a1.097 1.097 0 00-.087-.477c-.018-.041-.052-.072-.074-.11-.047-.082-.087-.167-.157-.237L44.173.6a1.109 1.109 0 00-.79-.33H3.61c-.31 0-.588.127-.79.33l-.004.003c-.057.057-.086.128-.128.193-.034.053-.079.097-.103.155a1.097 1.097 0 00-.087.475V22.88c-.006.162.021.323.087.474zm34.203-7.025h-26.58V7.977h26.58v8.352zm-27.233 2.22h27.884l3.275 3.266H6.28l3.274-3.266zm29.458-1.57V7.326l3.259-3.251V20.23l-3.26-3.251zM37.438 5.757H9.554L6.28 2.49h34.433l-3.275 3.267zM7.981 7.327v9.652l-3.26 3.252V4.075l3.26 3.251z" fill="#9C8679"/></svg>