<svg width="17" height="17" fill="none" xmlns="http://www.w3.org/2000/svg"><path d="M15.789 4.579c.104-.355 0-.616-.505-.616h-1.67c-.425 0-.621.224-.726.474 0 0-.85 2.072-2.053 3.416-.388.389-.567.514-.78.514-.104 0-.266-.125-.266-.48V4.58c0-.426-.12-.616-.47-.616H6.692c-.267 0-.425.199-.425.383 0 .403.6.496.663 1.63v2.462c0 .538-.096.637-.309.637-.567 0-1.945-2.08-2.762-4.462-.164-.462-.326-.65-.754-.65h-1.67c-.476 0-.573.224-.573.474 0 .442.567 2.64 2.64 5.543 1.38 1.982 3.326 3.056 5.095 3.056 1.063 0 1.194-.238 1.194-.649 0-1.894-.097-2.072.437-2.072.246 0 .671.124 1.664 1.08 1.134 1.134 1.321 1.642 1.956 1.642h1.67c.477 0 .718-.239.579-.71-.318-.989-2.464-3.025-2.56-3.16-.247-.318-.177-.46 0-.744.002-.002 2.04-2.872 2.25-3.844z" fill="#fff"/></svg>